<?xml version="1.0" encoding="UTF-8" standalone="no"?>
<!DOCTYPE svg PUBLIC "-//W3C//DTD SVG 1.1//EN" "http://www.w3.org/Graphics/SVG/1.1/DTD/svg11.dtd">
<svg xmlns="http://www.w3.org/2000/svg" version="1.1" viewBox="0 0 636 636">
<g stroke-width="2.00" fill="none" stroke-linecap="butt">
<path stroke="#b1dfac" vector-effect="non-scaling-stroke" d="
  M 411.94 65.56
  Q 415.48 68.86 420.66 76.40
  Q 421.68 77.88 422.20 79.88
  Q 422.70 81.76 423.33 83.60
  Q 424.52 87.03 428.21 87.19
  Q 431.39 87.33 431.76 84.16
  Q 432.23 80.19 431.24 76.42
  Q 430.49 73.57 428.04 69.48
  Q 416.61 50.37 397.56 41.19
  Q 381.45 33.42 361.20 31.12
  Q 361.17 31.12 353.78 30.62
  Q 349.73 30.34 344.00 29.50
  Q 336.47 28.39 321.29 27.88
  Q 315.60 27.69 312.24 27.31
  Q 307.73 26.79 303.26 25.97
  Q 299.64 25.30 297.53 22.41
  A 1.22 0.74 -65.1 0 1 297.43 21.53
  L 298.45 17.26
  A 1.46 0.98 44.9 0 0 298.26 16.30
  Q 296.32 12.86 292.69 14.19
  Q 283.78 17.44 286.76 27.04
  Q 288.61 32.99 295.75 34.00
  Q 313.34 36.48 325.81 37.48
  Q 337.89 38.45 342.15 38.90
  Q 350.32 39.77 358.50 40.50
  Q 373.08 41.81 389.33 48.64
  Q 395.14 51.08 398.69 53.81
  Q 402.27 56.57 411.94 65.56"
/>
<path stroke="#b1dfac" vector-effect="non-scaling-stroke" d="
  M 250.81 60.94
  Q 247.30 60.66 242.82 59.56
  Q 241.28 59.19 236.84 57.47
  Q 234.42 56.54 230.81 55.44
  Q 228.65 54.78 227.14 55.51
  Q 225.73 56.20 225.52 58.24
  Q 224.92 63.88 230.55 66.23
  Q 233.81 67.59 237.32 68.16
  Q 250.72 70.32 264.22 69.60
  Q 269.43 69.32 273.69 68.23
  Q 278.83 66.93 282.75 65.00
  Q 292.07 60.41 296.54 58.87
  Q 301.72 57.07 308.75 57.50
  Q 319.23 58.14 327.12 60.49
  Q 331.06 61.66 333.49 58.36
  Q 335.16 56.10 333.41 53.90
  Q 332.44 52.69 330.76 51.74
  Q 329.58 51.07 327.62 50.55
  Q 313.31 46.72 299.50 48.25
  Q 290.96 49.20 283.11 53.82
  Q 279.55 55.92 276.89 56.76
  Q 270.82 58.67 264.64 60.20
  Q 261.24 61.03 257.77 61.08
  Q 253.38 61.15 250.81 60.94"
/>
<path stroke="#b1dfac" vector-effect="non-scaling-stroke" d="
  M 230.81 81.21
  A 2.53 2.51 -31.1 0 0 228.10 80.55
  Q 221.93 82.77 215.50 81.75
  Q 205.50 80.16 191.94 73.31
  Q 188.61 71.63 184.10 72.19
  Q 182.10 72.44 180.74 73.58
  Q 179.26 74.83 178.31 76.48
  Q 177.15 78.53 177.43 81.72
  Q 177.82 86.10 178.75 88.25
  Q 180.30 91.85 183.48 91.10
  Q 185.87 90.55 186.94 88.14
  Q 188.05 85.62 187.37 82.73
  A 0.74 0.64 69.7 0 1 187.66 81.96
  Q 188.78 81.31 189.94 82.06
  Q 193.99 84.72 195.36 85.33
  Q 206.26 90.13 218.05 91.45
  Q 221.26 91.82 224.34 90.88
  Q 227.46 89.93 230.67 88.67
  A 2.16 2.15 86.1 0 0 231.99 87.15
  Q 232.84 83.40 230.81 81.21"
/>
<path stroke="#b1dfac" vector-effect="non-scaling-stroke" d="
  M 536.94 163.66
  Q 539.85 166.38 543.69 169.06
  Q 551.83 174.76 561.25 174.25
  Q 563.06 174.15 564.57 172.80
  Q 565.97 171.56 566.10 169.78
  Q 566.31 166.96 563.79 165.19
  Q 561.13 163.32 558.00 162.88
  Q 555.64 162.55 554.25 161.77
  Q 546.32 157.29 544.50 155.75
  Q 533.16 146.14 525.04 133.70
  Q 518.69 123.98 512.26 114.31
  Q 501.34 97.89 486.06 85.44
  Q 476.44 77.60 463.93 75.57
  Q 459.13 74.80 455.42 75.32
  Q 451.14 75.93 447.18 77.93
  Q 444.55 79.25 443.06 81.78
  Q 441.55 84.32 443.04 85.95
  Q 444.11 87.13 446.30 86.91
  Q 448.72 86.68 451.02 85.80
  Q 455.13 84.25 459.51 84.53
  Q 466.18 84.95 472.20 87.41
  Q 477.53 89.59 482.79 94.55
  Q 488.40 99.85 493.75 106.75
  Q 502.09 117.51 507.00 125.50
  Q 510.59 131.34 520.19 144.31
  Q 525.79 151.88 530.95 157.46
  Q 535.02 161.87 536.94 163.66"
/>
<path stroke="#b1dfac" vector-effect="non-scaling-stroke" d="
  M 145.07 128.93
  Q 149.59 125.30 154.92 123.01
  Q 157.74 121.80 163.25 120.59
  Q 169.71 119.16 171.69 118.44
  Q 174.59 117.38 176.73 114.55
  Q 177.85 113.07 176.76 111.56
  Q 174.60 108.60 171.21 108.43
  Q 169.86 108.36 165.31 109.29
  Q 149.80 112.44 137.44 121.94
  Q 131.91 126.18 127.47 132.23
  Q 127.36 132.38 125.29 135.05
  Q 123.26 137.66 123.25 139.50
  Q 123.23 142.98 127.96 143.68
  Q 130.26 144.02 131.99 142.46
  Q 135.31 139.46 138.56 135.70
  Q 142.99 130.60 145.07 128.93"
/>
<path stroke="#b1dfac" vector-effect="non-scaling-stroke" d="
  M 118.81 171.94
  Q 115.10 169.94 109.69 171.69
  Q 102.71 173.94 98.86 176.31
  Q 77.77 189.30 72.41 213.54
  Q 70.82 220.73 72.19 227.96
  Q 72.90 231.72 75.19 233.06
  Q 79.91 235.82 83.47 232.16
  A 2.20 2.20 58.9 0 0 84.00 230.01
  Q 83.07 226.83 82.52 223.59
  Q 81.97 220.34 82.57 217.05
  Q 87.05 192.45 110.22 183.11
  Q 110.27 183.09 114.52 181.91
  Q 116.86 181.27 118.69 179.71
  Q 120.53 178.14 120.96 176.21
  Q 121.58 173.42 118.81 171.94"
/>
<path stroke="#b1dfac" vector-effect="non-scaling-stroke" d="
  M 573.94 271.56
  Q 579.02 276.10 582.72 278.51
  Q 588.45 282.25 593.16 277.20
  A 1.19 1.17 -32.0 0 0 593.43 276.08
  Q 592.22 271.95 589.08 269.66
  Q 585.15 266.81 581.50 263.61
  Q 578.63 261.11 577.07 258.02
  Q 573.48 250.91 571.06 240.94
  Q 567.86 227.74 567.50 223.00
  Q 566.61 211.36 563.19 203.06
  Q 559.85 194.97 550.99 193.71
  Q 547.58 193.22 546.53 193.19
  Q 544.07 193.10 542.06 194.31
  Q 539.27 196.00 539.80 198.69
  Q 540.20 200.78 542.37 201.85
  Q 544.03 202.67 546.50 203.25
  Q 552.82 204.73 554.43 211.77
  Q 558.49 229.57 562.08 247.48
  Q 563.97 256.93 568.69 265.31
  Q 570.48 268.48 573.94 271.56"
/>
<path stroke="#b1dfac" vector-effect="non-scaling-stroke" d="
  M 256.65 289.86
  Q 264.57 294.72 273.25 295.50
  Q 279.30 296.04 287.14 295.81
  Q 289.47 295.75 290.54 294.73
  Q 292.12 293.21 291.50 290.75
  Q 291.04 288.94 288.86 287.57
  A 1.48 1.28 -28.6 0 0 287.94 287.37
  Q 262.76 289.99 249.11 270.81
  Q 245.55 265.80 244.54 261.57
  Q 243.40 256.72 244.25 251.00
  Q 247.37 230.09 260.95 215.70
  Q 263.06 213.46 265.12 211.17
  Q 266.83 209.26 266.86 207.76
  Q 266.91 205.34 264.00 204.25
  Q 262.76 203.78 258.05 204.71
  A 1.70 1.65 -72.5 0 0 257.20 205.17
  Q 245.64 216.64 239.03 231.55
  Q 233.55 243.92 234.33 257.50
  Q 235.02 269.37 242.80 278.21
  Q 248.85 285.08 256.65 289.86"
/>
<path stroke="#b1dfac" vector-effect="non-scaling-stroke" d="
  M 176.14 221.19
  Q 174.35 220.41 172.31 221.81
  Q 169.63 223.66 168.14 225.91
  Q 165.03 230.60 163.78 235.91
  Q 162.79 240.10 162.53 246.61
  Q 162.12 256.51 165.31 265.44
  Q 169.67 277.62 181.38 284.41
  Q 191.98 290.55 204.20 290.12
  Q 207.47 290.00 208.29 289.83
  Q 210.94 289.27 211.59 286.89
  Q 212.30 284.25 210.25 282.07
  Q 207.78 279.45 203.50 279.75
  Q 196.20 280.26 190.16 276.91
  Q 184.77 273.92 180.50 269.34
  Q 175.94 264.43 174.19 257.31
  Q 170.58 242.67 178.10 230.39
  Q 178.12 230.36 178.95 229.14
  Q 181.18 225.87 178.88 223.33
  Q 177.46 221.77 176.14 221.19"
/>
<path stroke="#b1dfac" vector-effect="non-scaling-stroke" d="
  M 326.68 300.02
  Q 332.75 304.65 339.86 307.73
  Q 345.78 310.29 350.44 309.44
  Q 353.71 308.84 354.83 305.52
  Q 355.49 303.57 353.71 302.53
  Q 351.48 301.23 348.47 300.36
  Q 337.63 297.21 328.99 290.00
  Q 321.51 283.75 319.44 275.81
  Q 317.26 267.47 321.76 259.85
  Q 323.84 256.34 323.98 255.22
  Q 324.38 251.99 320.68 250.31
  Q 319.07 249.58 317.68 250.67
  Q 313.24 254.15 311.40 259.22
  Q 309.97 263.16 309.69 269.37
  Q 309.17 280.80 315.76 289.54
  Q 319.56 294.59 326.68 300.02"
/>
<path stroke="#b1dfac" vector-effect="non-scaling-stroke" d="
  M 81.59 299.81
  Q 87.39 304.06 94.33 306.20
  Q 96.90 307.00 98.23 306.72
  Q 100.29 306.30 101.63 304.13
  A 2.02 2.02 -48.7 0 0 101.48 301.80
  Q 99.26 299.04 97.18 298.18
  Q 88.48 294.58 81.81 287.94
  Q 79.53 285.67 78.82 283.02
  Q 78.16 280.57 79.52 277.65
  Q 81.41 273.61 84.81 270.57
  Q 86.92 268.68 89.22 266.41
  A 1.41 1.39 -26.5 0 0 89.62 265.24
  Q 89.06 260.74 85.74 260.08
  A 1.66 1.33 -45.9 0 0 84.79 260.20
  Q 73.96 265.15 70.18 276.56
  Q 68.63 281.25 69.75 285.25
  Q 71.07 289.98 74.43 293.66
  Q 76.89 296.36 81.59 299.81"
/>
<path stroke="#b1dfac" vector-effect="non-scaling-stroke" d="
  M 126.94 294.81
  Q 127.79 295.51 128.56 295.92
  Q 129.57 296.47 130.14 296.98
  Q 133.71 300.15 138.81 300.94
  Q 143.32 301.64 143.44 297.31
  A 1.11 1.04 22.4 0 0 143.06 296.48
  Q 140.71 294.45 136.31 291.44
  Q 130.98 287.79 130.15 281.55
  Q 129.73 278.43 130.99 275.61
  Q 132.26 272.80 134.56 270.56
  Q 136.92 268.26 136.75 265.25
  Q 136.57 262.04 133.64 262.12
  Q 132.70 262.14 131.47 262.78
  Q 130.45 263.30 129.44 263.85
  Q 127.87 264.71 126.87 266.04
  Q 121.49 273.27 120.82 282.32
  Q 120.73 283.46 121.26 284.57
  Q 121.76 285.62 122.26 286.67
  Q 122.42 287.01 123.44 289.94
  Q 124.42 292.76 126.94 294.81"
/>
<path stroke="#b1dfac" vector-effect="non-scaling-stroke" d="
  M 392.69 299.81
  Q 402.12 307.10 414.53 310.11
  Q 419.30 311.27 424.08 312.35
  Q 428.17 313.27 430.94 312.19
  Q 436.79 309.90 432.78 305.43
  A 1.28 1.22 -17.7 0 0 431.94 305.02
  Q 428.74 304.74 425.53 304.70
  Q 423.65 304.67 421.72 304.03
  Q 419.85 303.42 417.94 302.98
  Q 414.18 302.13 412.37 301.29
  Q 408.79 299.61 402.56 296.19
  Q 390.17 289.37 393.06 276.27
  Q 393.07 276.20 394.35 272.46
  Q 395.92 267.90 393.21 264.22
  Q 391.83 262.36 389.91 263.66
  Q 387.03 265.61 386.18 268.23
  Q 384.06 274.82 384.14 281.64
  Q 384.20 287.39 386.15 291.61
  Q 388.40 296.50 392.69 299.81"
/>
<path stroke="#b1dfac" vector-effect="non-scaling-stroke" d="
  M 450.94 317.31
  Q 460.81 325.88 470.50 329.75
  Q 473.66 331.01 476.60 330.89
  Q 478.17 330.82 479.10 329.88
  Q 480.23 328.73 480.26 327.19
  Q 480.30 325.24 478.39 324.17
  Q 476.77 323.27 474.25 322.75
  Q 469.33 321.74 464.76 318.48
  Q 460.93 315.75 456.97 311.79
  Q 454.22 309.04 452.02 305.80
  Q 449.62 302.25 449.22 298.72
  Q 448.56 292.86 451.48 287.53
  Q 452.64 285.40 452.68 284.09
  Q 452.75 281.53 450.99 280.54
  Q 447.64 278.66 445.35 281.76
  Q 441.10 287.52 440.39 294.24
  Q 439.69 300.81 442.68 306.88
  Q 445.48 312.57 450.94 317.31"
/>
<path stroke="#b1dfac" vector-effect="non-scaling-stroke" d="
  M 580.64 361.86
  Q 581.88 362.99 585.00 364.75
  Q 587.33 366.07 589.31 365.39
  Q 591.17 364.75 592.37 363.21
  Q 593.48 361.78 592.54 360.02
  Q 592.04 359.08 590.51 357.90
  Q 588.84 356.59 587.13 355.32
  Q 585.20 353.87 584.09 352.42
  Q 580.91 348.26 580.50 344.50
  Q 579.28 333.35 583.98 320.42
  Q 583.99 320.39 584.96 317.98
  Q 587.59 311.42 587.50 302.25
  Q 587.41 292.52 580.72 287.54
  Q 578.91 286.20 577.09 286.28
  Q 574.18 286.42 573.79 289.23
  Q 573.56 290.89 574.99 293.31
  Q 577.06 296.83 577.75 299.75
  Q 580.24 310.35 574.98 320.77
  Q 572.31 326.07 571.66 331.81
  Q 571.00 337.60 571.38 343.18
  Q 572.12 354.07 580.64 361.86"
/>
<path stroke="#b1dfac" vector-effect="non-scaling-stroke" d="
  M 107.3015 311.9320
  A 5.34 4.70 125.6 0 0 114.2316 310.3260
  A 5.34 4.70 125.6 0 0 113.5185 303.2480
  A 5.34 4.70 125.6 0 0 106.5884 304.8540
  A 5.34 4.70 125.6 0 0 107.3015 311.9320"
/>
<path stroke="#b1dfac" vector-effect="non-scaling-stroke" d="
  M 256.94 454.57
  Q 278.82 457.24 286.00 457.25
  Q 295.27 457.26 304.52 457.70
  Q 315.71 458.24 323.01 458.35
  Q 335.13 458.53 347.25 459.01
  Q 368.15 459.85 389.01 458.36
  Q 404.95 457.22 420.57 453.87
  Q 443.06 449.04 464.96 442.00
  Q 473.52 439.24 478.69 435.94
  Q 483.46 432.89 481.18 427.54
  Q 480.28 425.43 477.99 425.23
  Q 474.71 424.94 471.67 426.66
  Q 461.10 432.67 449.56 436.56
  Q 438.40 440.33 416.00 445.00
  Q 405.47 447.19 384.14 449.07
  Q 375.59 449.83 367.84 449.96
  Q 359.67 450.09 351.50 449.94
  Q 346.74 449.85 341.99 450.13
  Q 336.18 450.47 332.49 450.37
  Q 314.88 449.89 297.27 449.41
  Q 291.79 449.26 285.27 448.54
  Q 279.27 447.87 273.26 447.38
  Q 262.89 446.54 255.32 445.33
  Q 245.03 443.68 234.75 442.00
  Q 228.55 440.99 213.49 436.49
  Q 204.61 433.83 194.68 429.78
  Q 181.69 424.48 168.69 419.19
  Q 159.38 415.40 154.10 412.79
  Q 146.95 409.24 140.08 405.16
  Q 134.60 401.91 130.94 398.56
  Q 127.95 395.83 126.36 392.04
  Q 124.75 388.22 124.36 384.49
  Q 123.84 379.68 126.08 375.07
  Q 129.08 368.92 131.81 365.31
  Q 138.16 356.92 148.06 346.56
  Q 152.76 341.66 153.58 336.00
  Q 153.99 333.21 153.85 329.99
  Q 153.72 326.75 152.44 324.06
  Q 150.56 320.11 147.12 316.32
  Q 145.15 314.14 143.56 313.67
  Q 141.13 312.95 138.82 314.82
  Q 135.88 317.20 138.40 320.08
  Q 139.73 321.61 140.97 323.20
  Q 142.38 325.01 143.05 326.64
  Q 145.49 332.51 143.23 337.91
  Q 142.06 340.70 136.64 346.19
  Q 130.74 352.16 125.32 358.57
  Q 120.54 364.21 117.42 370.79
  Q 113.98 378.05 114.15 384.68
  Q 114.34 391.95 117.88 398.42
  Q 119.79 401.91 123.22 405.13
  Q 126.65 408.36 130.06 410.44
  Q 143.05 418.36 158.30 424.91
  Q 164.89 427.75 176.77 432.56
  Q 201.39 442.54 227.19 449.03
  Q 241.89 452.73 256.94 454.57"
/>
<path stroke="#b1dfac" vector-effect="non-scaling-stroke" d="
  M 236.19 356.27
  Q 242.35 356.27 248.51 356.07
  Q 248.57 356.07 252.49 356.05
  Q 255.95 356.03 258.50 355.25
  Q 265.71 353.05 274.80 348.68
  Q 274.91 348.62 277.37 347.55
  Q 280.33 346.25 282.65 344.04
  Q 284.12 342.64 284.23 340.85
  Q 284.35 338.87 283.60 337.09
  Q 283.44 336.72 281.05 332.76
  Q 279.13 329.58 278.06 328.69
  Q 276.05 327.00 273.56 328.81
  Q 269.13 332.05 269.58 338.65
  Q 269.71 340.58 267.94 341.39
  Q 264.06 343.18 259.58 344.82
  Q 255.39 346.36 250.80 346.70
  Q 241.88 347.35 234.50 347.00
  Q 213.95 346.03 192.00 341.00
  Q 184.51 339.28 176.23 333.48
  A 1.61 1.55 8.2 0 1 175.64 332.72
  Q 173.23 326.13 174.67 318.30
  A 1.11 1.10 10.6 0 0 173.78 317.01
  Q 169.69 316.25 165.62 316.56
  A 1.27 1.25 5.2 0 0 164.50 317.48
  Q 162.69 324.24 163.42 331.23
  Q 164.08 337.50 168.69 340.56
  Q 182.07 349.47 199.50 351.75
  Q 200.22 351.84 202.90 352.97
  Q 204.56 353.67 206.37 353.80
  Q 209.82 354.05 213.24 354.56
  Q 224.65 356.25 236.19 356.27"
/>
<path stroke="#b1dfac" vector-effect="non-scaling-stroke" d="
  M 493.45 357.08
  Q 495.05 358.74 497.05 357.58
  Q 512.59 348.51 503.74 331.16
  Q 501.99 327.74 500.75 326.25
  Q 497.12 321.90 492.06 323.56
  Q 489.32 324.46 489.69 326.83
  Q 489.88 328.02 491.37 329.84
  Q 495.78 335.22 496.81 338.19
  Q 498.55 343.19 495.89 347.66
  Q 494.74 349.58 493.52 351.45
  Q 492.42 353.11 492.34 354.12
  Q 492.20 355.78 493.45 357.08"
/>
<path stroke="#b1dfac" vector-effect="non-scaling-stroke" d="
  M 455.86 363.27
  Q 456.67 365.08 458.94 365.81
  Q 474.20 370.73 486.77 372.88
  Q 491.84 373.75 492.00 368.73
  Q 492.11 365.41 488.91 364.50
  Q 476.53 360.98 463.47 357.68
  Q 461.09 357.08 459.99 357.30
  Q 458.12 357.67 456.93 359.45
  A 0.66 0.66 39.1 0 1 455.92 359.55
  Q 452.79 356.44 448.77 356.75
  Q 446.69 356.91 443.85 358.98
  Q 439.89 361.88 435.64 364.31
  Q 431.74 366.54 427.37 367.68
  Q 422.18 369.03 418.50 369.25
  Q 408.38 369.85 394.57 368.98
  Q 384.52 368.35 381.45 367.78
  Q 374.91 366.57 368.88 363.41
  Q 361.79 359.70 356.56 355.94
  Q 352.99 353.37 351.69 349.39
  Q 350.62 346.10 351.91 342.15
  Q 353.08 338.58 355.22 335.39
  A 1.53 1.52 -54.3 0 0 354.89 333.33
  Q 352.48 331.46 349.42 333.15
  Q 343.94 336.16 339.80 340.83
  Q 338.38 342.42 338.20 344.55
  Q 337.64 351.16 340.62 357.31
  Q 341.46 359.06 343.53 360.64
  Q 345.39 362.06 348.56 364.69
  Q 351.72 367.30 357.14 370.11
  Q 364.00 373.66 366.19 374.62
  Q 371.11 376.78 376.25 377.50
  Q 389.59 379.37 403.79 379.41
  Q 417.79 379.45 422.21 379.06
  Q 431.50 378.24 440.26 374.84
  Q 444.84 373.06 448.49 369.99
  Q 452.19 366.88 455.36 363.19
  A 0.30 0.30 53.9 0 1 455.86 363.27"
/>
<path stroke="#b1dfac" vector-effect="non-scaling-stroke" d="
  M 286.92 343.28
  Q 291.08 347.53 295.97 348.33
  Q 299.42 348.89 299.51 348.91
  Q 311.27 351.55 323.31 351.95
  Q 323.38 351.96 326.69 352.23
  Q 328.71 352.40 330.68 352.03
  Q 333.28 351.55 334.38 349.62
  Q 336.18 346.43 331.69 344.56
  Q 329.93 343.83 322.02 343.76
  Q 319.21 343.73 316.13 342.84
  Q 311.76 341.57 307.25 341.01
  Q 302.29 340.40 300.43 339.97
  Q 297.07 339.20 293.76 338.22
  Q 291.97 337.68 290.13 337.70
  Q 288.24 337.72 287.42 338.86
  Q 286.59 340.02 286.45 342.00
  A 1.70 1.67 25.3 0 0 286.92 343.28"
/>
<path stroke="#b1dfac" vector-effect="non-scaling-stroke" d="
  M 499.69 371.31
  Q 502.25 373.21 503.97 371.50
  Q 504.72 370.75 505.42 368.22
  Q 507.06 362.23 511.31 359.31
  Q 519.11 353.97 529.69 356.56
  Q 533.40 357.47 537.91 360.34
  Q 540.95 362.28 542.28 364.49
  Q 543.95 367.28 544.00 370.50
  Q 544.06 375.12 542.12 379.44
  Q 540.69 382.63 537.17 385.56
  Q 528.84 392.49 519.14 397.36
  Q 517.55 398.16 513.24 399.83
  Q 510.24 400.99 507.38 402.46
  Q 506.95 402.68 506.44 402.67
  Q 502.63 402.66 500.56 405.06
  Q 495.98 410.39 500.50 412.44
  Q 502.68 413.43 506.08 412.83
  Q 516.23 411.03 527.31 404.81
  Q 540.25 397.55 547.53 388.56
  Q 553.10 381.68 553.14 372.75
  Q 553.17 364.22 547.32 358.19
  Q 539.04 349.65 527.77 348.25
  Q 521.90 347.52 515.82 349.01
  Q 509.53 350.55 504.69 353.94
  Q 499.14 357.82 497.62 364.42
  Q 496.57 369.01 499.69 371.31"
/>
<path stroke="#b1dfac" vector-effect="non-scaling-stroke" d="
  M 269.35 388.04
  Q 272.97 390.06 277.31 388.31
  Q 279.97 387.25 283.40 387.03
  Q 284.71 386.95 289.59 386.93
  Q 294.52 386.91 299.41 387.51
  Q 306.39 388.36 309.13 388.60
  Q 323.05 389.83 334.69 393.56
  Q 337.89 394.59 339.77 398.06
  A 1.52 1.48 35.2 0 1 339.94 398.99
  Q 339.10 405.20 333.69 409.69
  Q 325.93 416.12 317.25 418.00
  Q 315.17 418.45 313.94 420.15
  Q 312.71 421.87 313.20 423.68
  Q 313.84 426.03 317.00 426.00
  Q 320.80 425.96 323.70 424.65
  Q 328.91 422.29 333.79 419.32
  Q 342.19 414.20 346.57 405.66
  Q 348.40 402.08 348.51 399.07
  Q 348.65 395.20 346.60 392.20
  Q 344.54 389.21 338.74 386.91
  Q 329.96 383.43 320.65 381.91
  Q 316.79 381.28 305.37 379.99
  Q 298.14 379.18 290.00 378.75
  Q 281.79 378.32 274.40 379.51
  Q 274.24 379.53 271.58 379.75
  Q 266.99 380.11 267.79 385.77
  A 3.09 3.07 10.7 0 0 269.35 388.04"
/>
<path stroke="#b1dfac" vector-effect="non-scaling-stroke" d="
  M 273.30 417.98
  Q 276.01 419.78 279.65 420.73
  A 2.42 2.42 20.5 0 0 281.86 420.22
  Q 284.79 417.70 283.58 415.42
  Q 283.14 414.57 280.40 412.63
  Q 275.95 409.48 272.84 404.97
  Q 271.72 403.36 272.55 401.58
  Q 273.64 399.26 272.66 397.61
  Q 271.78 396.12 269.65 396.23
  Q 265.00 396.47 263.57 401.92
  Q 263.05 403.95 263.56 405.98
  Q 264.64 410.19 268.09 413.60
  Q 270.89 416.37 273.30 417.98"
/>
<path stroke="#b1dfac" vector-effect="non-scaling-stroke" d="
  M 277.19 485.31
  Q 280.83 489.07 285.40 490.23
  Q 288.28 490.97 294.61 491.18
  Q 301.50 491.42 307.94 489.13
  Q 311.52 487.85 315.55 485.01
  Q 319.12 482.51 322.44 479.69
  Q 324.66 477.81 325.15 475.24
  Q 325.68 472.52 323.93 470.64
  Q 322.32 468.91 319.80 469.27
  Q 318.22 469.49 316.40 471.31
  Q 309.78 477.94 300.25 480.25
  Q 294.27 481.70 288.65 480.43
  Q 285.51 479.71 284.07 477.89
  Q 281.97 475.23 283.90 471.90
  Q 284.03 471.67 286.15 469.63
  Q 287.86 467.98 286.44 465.56
  Q 284.13 461.63 279.81 464.06
  Q 274.04 467.32 273.37 475.01
  Q 272.87 480.86 277.19 485.31"
/>
<path stroke="#b1dfac" vector-effect="non-scaling-stroke" d="
  M 358.88 474.88
  Q 380.04 485.47 394.61 503.67
  Q 399.93 510.32 406.35 519.86
  Q 421.46 542.31 427.83 568.98
  Q 430.53 580.32 430.50 590.50
  Q 430.49 593.27 432.18 594.86
  A 1.57 1.21 -15.6 0 0 433.07 595.22
  L 437.02 595.50
  Q 439.31 595.66 439.82 593.45
  Q 440.35 591.16 440.37 588.50
  Q 440.47 573.96 436.50 560.21
  Q 434.23 552.35 429.60 541.44
  Q 418.70 515.76 400.19 494.56
  Q 396.38 490.20 384.09 478.75
  Q 381.03 475.90 377.70 473.53
  Q 374.34 471.15 370.94 468.81
  Q 367.85 466.68 364.24 465.85
  Q 361.15 465.14 360.26 465.07
  Q 357.88 464.88 356.25 466.50
  Q 353.50 469.24 355.10 471.96
  Q 355.95 473.41 358.88 474.88"
/>
<path stroke="#b1dfac" vector-effect="non-scaling-stroke" d="
  M 265.50 467.52
  Q 262.81 465.23 260.00 466.00
  Q 252.22 468.14 245.36 473.04
  Q 240.94 476.20 233.26 483.62
  Q 220.39 496.07 210.86 511.19
  Q 204.40 521.44 200.76 528.43
  Q 196.11 537.39 193.36 547.21
  Q 190.55 557.22 188.79 567.46
  Q 187.91 572.55 192.47 573.84
  Q 196.28 574.92 198.00 572.00
  Q 198.85 570.56 199.09 568.90
  Q 200.85 556.39 204.60 545.26
  Q 207.54 536.52 212.74 527.04
  Q 224.00 506.50 240.46 489.78
  Q 246.01 484.15 251.33 480.62
  Q 257.28 476.68 263.86 473.79
  Q 266.08 472.81 266.72 471.63
  Q 267.85 469.52 265.50 467.52"
/>
<path stroke="#b1dfac" vector-effect="non-scaling-stroke" d="
  M 262.19 583.31
  Q 272.64 593.44 286.00 595.16
  Q 290.64 595.76 299.01 595.74
  Q 306.47 595.73 312.00 594.25
  Q 323.03 591.30 331.91 581.18
  Q 334.72 577.98 336.25 574.00
  Q 338.41 568.36 340.06 562.56
  Q 343.12 551.77 340.99 541.22
  Q 339.54 534.05 335.03 527.72
  Q 330.72 521.68 324.75 516.75
  Q 318.63 511.70 311.21 510.24
  Q 309.39 509.89 303.83 509.06
  Q 300.12 508.50 296.36 508.52
  Q 290.29 508.57 287.63 508.73
  Q 282.82 509.03 279.06 510.81
  Q 272.82 513.77 269.06 516.31
  Q 265.90 518.46 263.37 521.71
  Q 261.70 523.88 258.87 528.07
  Q 255.39 533.26 253.54 539.21
  Q 252.49 542.61 252.13 547.41
  Q 251.81 551.57 251.73 555.75
  Q 251.54 565.18 254.98 573.81
  Q 256.19 576.82 258.01 578.95
  Q 259.63 580.83 262.19 583.31"
/>
<path stroke="#b1dfac" vector-effect="non-scaling-stroke" d="
  M 271.44 579.31
  Q 277.98 585.01 285.73 586.21
  Q 291.49 587.10 291.73 587.14
  Q 313.75 591.17 325.94 572.44
  Q 332.11 562.95 332.89 551.43
  Q 333.17 547.33 333.08 545.07
  Q 332.94 541.47 331.69 538.81
  Q 331.05 537.45 327.74 532.11
  Q 325.05 527.75 323.22 525.81
  Q 317.39 519.63 308.81 518.19
  Q 302.81 517.18 295.46 517.03
  Q 290.45 516.92 289.55 517.01
  Q 286.75 517.28 283.75 518.50
  Q 268.16 524.87 263.60 539.71
  Q 261.68 545.94 261.21 551.83
  Q 260.74 557.76 262.19 564.31
  Q 264.09 572.91 271.44 579.31"
/>
<path stroke="#b1dfac" vector-effect="non-scaling-stroke" d="
  M 280.44 574.56
  Q 284.65 576.99 289.48 576.79
  Q 292.49 576.68 296.21 574.56
  Q 310.14 566.68 319.81 558.31
  Q 323.04 555.52 323.38 551.21
  Q 323.70 547.00 321.39 544.40
  Q 319.13 541.87 315.43 542.95
  Q 313.61 543.48 310.52 545.77
  Q 302.04 552.06 293.45 558.20
  Q 291.74 559.43 289.88 560.37
  Q 287.77 561.45 285.92 561.14
  Q 281.37 560.36 282.00 554.73
  Q 282.16 553.32 281.99 551.90
  Q 281.49 547.85 284.69 545.41
  Q 286.57 543.98 288.62 542.80
  Q 291.40 541.19 292.33 540.00
  Q 294.92 536.70 292.20 533.72
  Q 290.40 531.74 287.48 530.92
  Q 282.81 529.60 279.88 532.94
  Q 277.97 535.12 277.54 539.17
  Q 277.23 542.15 277.25 546.00
  Q 277.36 565.53 277.55 569.50
  Q 277.72 573.00 280.44 574.56"
/>
</g>
<path fill="#84cd7d" d="
  M 0.00 0.00
  L 636.00 0.00
  L 636.00 636.00
  L 0.00 636.00
  L 0.00 0.00
  Z
  M 411.94 65.56
  Q 415.48 68.86 420.66 76.40
  Q 421.68 77.88 422.20 79.88
  Q 422.70 81.76 423.33 83.60
  Q 424.52 87.03 428.21 87.19
  Q 431.39 87.33 431.76 84.16
  Q 432.23 80.19 431.24 76.42
  Q 430.49 73.57 428.04 69.48
  Q 416.61 50.37 397.56 41.19
  Q 381.45 33.42 361.20 31.12
  Q 361.17 31.12 353.78 30.62
  Q 349.73 30.34 344.00 29.50
  Q 336.47 28.39 321.29 27.88
  Q 315.60 27.69 312.24 27.31
  Q 307.73 26.79 303.26 25.97
  Q 299.64 25.30 297.53 22.41
  A 1.22 0.74 -65.1 0 1 297.43 21.53
  L 298.45 17.26
  A 1.46 0.98 44.9 0 0 298.26 16.30
  Q 296.32 12.86 292.69 14.19
  Q 283.78 17.44 286.76 27.04
  Q 288.61 32.99 295.75 34.00
  Q 313.34 36.48 325.81 37.48
  Q 337.89 38.45 342.15 38.90
  Q 350.32 39.77 358.50 40.50
  Q 373.08 41.81 389.33 48.64
  Q 395.14 51.08 398.69 53.81
  Q 402.27 56.57 411.94 65.56
  Z
  M 250.81 60.94
  Q 247.30 60.66 242.82 59.56
  Q 241.28 59.19 236.84 57.47
  Q 234.42 56.54 230.81 55.44
  Q 228.65 54.78 227.14 55.51
  Q 225.73 56.20 225.52 58.24
  Q 224.92 63.88 230.55 66.23
  Q 233.81 67.59 237.32 68.16
  Q 250.72 70.32 264.22 69.60
  Q 269.43 69.32 273.69 68.23
  Q 278.83 66.93 282.75 65.00
  Q 292.07 60.41 296.54 58.87
  Q 301.72 57.07 308.75 57.50
  Q 319.23 58.14 327.12 60.49
  Q 331.06 61.66 333.49 58.36
  Q 335.16 56.10 333.41 53.90
  Q 332.44 52.69 330.76 51.74
  Q 329.58 51.07 327.62 50.55
  Q 313.31 46.72 299.50 48.25
  Q 290.96 49.20 283.11 53.82
  Q 279.55 55.92 276.89 56.76
  Q 270.82 58.67 264.64 60.20
  Q 261.24 61.03 257.77 61.08
  Q 253.38 61.15 250.81 60.94
  Z
  M 230.81 81.21
  A 2.53 2.51 -31.1 0 0 228.10 80.55
  Q 221.93 82.77 215.50 81.75
  Q 205.50 80.16 191.94 73.31
  Q 188.61 71.63 184.10 72.19
  Q 182.10 72.44 180.74 73.58
  Q 179.26 74.83 178.31 76.48
  Q 177.15 78.53 177.43 81.72
  Q 177.82 86.10 178.75 88.25
  Q 180.30 91.85 183.48 91.10
  Q 185.87 90.55 186.94 88.14
  Q 188.05 85.62 187.37 82.73
  A 0.74 0.64 69.7 0 1 187.66 81.96
  Q 188.78 81.31 189.94 82.06
  Q 193.99 84.72 195.36 85.33
  Q 206.26 90.13 218.05 91.45
  Q 221.26 91.82 224.34 90.88
  Q 227.46 89.93 230.67 88.67
  A 2.16 2.15 86.1 0 0 231.99 87.15
  Q 232.84 83.40 230.81 81.21
  Z
  M 536.94 163.66
  Q 539.85 166.38 543.69 169.06
  Q 551.83 174.76 561.25 174.25
  Q 563.06 174.15 564.57 172.80
  Q 565.97 171.56 566.10 169.78
  Q 566.31 166.96 563.79 165.19
  Q 561.13 163.32 558.00 162.88
  Q 555.64 162.55 554.25 161.77
  Q 546.32 157.29 544.50 155.75
  Q 533.16 146.14 525.04 133.70
  Q 518.69 123.98 512.26 114.31
  Q 501.34 97.89 486.06 85.44
  Q 476.44 77.60 463.93 75.57
  Q 459.13 74.80 455.42 75.32
  Q 451.14 75.93 447.18 77.93
  Q 444.55 79.25 443.06 81.78
  Q 441.55 84.32 443.04 85.95
  Q 444.11 87.13 446.30 86.91
  Q 448.72 86.68 451.02 85.80
  Q 455.13 84.25 459.51 84.53
  Q 466.18 84.95 472.20 87.41
  Q 477.53 89.59 482.79 94.55
  Q 488.40 99.85 493.75 106.75
  Q 502.09 117.51 507.00 125.50
  Q 510.59 131.34 520.19 144.31
  Q 525.79 151.88 530.95 157.46
  Q 535.02 161.87 536.94 163.66
  Z
  M 145.07 128.93
  Q 149.59 125.30 154.92 123.01
  Q 157.74 121.80 163.25 120.59
  Q 169.71 119.16 171.69 118.44
  Q 174.59 117.38 176.73 114.55
  Q 177.85 113.07 176.76 111.56
  Q 174.60 108.60 171.21 108.43
  Q 169.86 108.36 165.31 109.29
  Q 149.80 112.44 137.44 121.94
  Q 131.91 126.18 127.47 132.23
  Q 127.36 132.38 125.29 135.05
  Q 123.26 137.66 123.25 139.50
  Q 123.23 142.98 127.96 143.68
  Q 130.26 144.02 131.99 142.46
  Q 135.31 139.46 138.56 135.70
  Q 142.99 130.60 145.07 128.93
  Z
  M 118.81 171.94
  Q 115.10 169.94 109.69 171.69
  Q 102.71 173.94 98.86 176.31
  Q 77.77 189.30 72.41 213.54
  Q 70.82 220.73 72.19 227.96
  Q 72.90 231.72 75.19 233.06
  Q 79.91 235.82 83.47 232.16
  A 2.20 2.20 58.9 0 0 84.00 230.01
  Q 83.07 226.83 82.52 223.59
  Q 81.97 220.34 82.57 217.05
  Q 87.05 192.45 110.22 183.11
  Q 110.27 183.09 114.52 181.91
  Q 116.86 181.27 118.69 179.71
  Q 120.53 178.14 120.96 176.21
  Q 121.58 173.42 118.81 171.94
  Z
  M 573.94 271.56
  Q 579.02 276.10 582.72 278.51
  Q 588.45 282.25 593.16 277.20
  A 1.19 1.17 -32.0 0 0 593.43 276.08
  Q 592.22 271.95 589.08 269.66
  Q 585.15 266.81 581.50 263.61
  Q 578.63 261.11 577.07 258.02
  Q 573.48 250.91 571.06 240.94
  Q 567.86 227.74 567.50 223.00
  Q 566.61 211.36 563.19 203.06
  Q 559.85 194.97 550.99 193.71
  Q 547.58 193.22 546.53 193.19
  Q 544.07 193.10 542.06 194.31
  Q 539.27 196.00 539.80 198.69
  Q 540.20 200.78 542.37 201.85
  Q 544.03 202.67 546.50 203.25
  Q 552.82 204.73 554.43 211.77
  Q 558.49 229.57 562.08 247.48
  Q 563.97 256.93 568.69 265.31
  Q 570.48 268.48 573.94 271.56
  Z
  M 256.65 289.86
  Q 264.57 294.72 273.25 295.50
  Q 279.30 296.04 287.14 295.81
  Q 289.47 295.75 290.54 294.73
  Q 292.12 293.21 291.50 290.75
  Q 291.04 288.94 288.86 287.57
  A 1.48 1.28 -28.6 0 0 287.94 287.37
  Q 262.76 289.99 249.11 270.81
  Q 245.55 265.80 244.54 261.57
  Q 243.40 256.72 244.25 251.00
  Q 247.37 230.09 260.95 215.70
  Q 263.06 213.46 265.12 211.17
  Q 266.83 209.26 266.86 207.76
  Q 266.91 205.34 264.00 204.25
  Q 262.76 203.78 258.05 204.71
  A 1.70 1.65 -72.5 0 0 257.20 205.17
  Q 245.64 216.64 239.03 231.55
  Q 233.55 243.92 234.33 257.50
  Q 235.02 269.37 242.80 278.21
  Q 248.85 285.08 256.65 289.86
  Z
  M 176.14 221.19
  Q 174.35 220.41 172.31 221.81
  Q 169.63 223.66 168.14 225.91
  Q 165.03 230.60 163.78 235.91
  Q 162.79 240.10 162.53 246.61
  Q 162.12 256.51 165.31 265.44
  Q 169.67 277.62 181.38 284.41
  Q 191.98 290.55 204.20 290.12
  Q 207.47 290.00 208.29 289.83
  Q 210.94 289.27 211.59 286.89
  Q 212.30 284.25 210.25 282.07
  Q 207.78 279.45 203.50 279.75
  Q 196.20 280.26 190.16 276.91
  Q 184.77 273.92 180.50 269.34
  Q 175.94 264.43 174.19 257.31
  Q 170.58 242.67 178.10 230.39
  Q 178.12 230.36 178.95 229.14
  Q 181.18 225.87 178.88 223.33
  Q 177.46 221.77 176.14 221.19
  Z
  M 326.68 300.02
  Q 332.75 304.65 339.86 307.73
  Q 345.78 310.29 350.44 309.44
  Q 353.71 308.84 354.83 305.52
  Q 355.49 303.57 353.71 302.53
  Q 351.48 301.23 348.47 300.36
  Q 337.63 297.21 328.99 290.00
  Q 321.51 283.75 319.44 275.81
  Q 317.26 267.47 321.76 259.85
  Q 323.84 256.34 323.98 255.22
  Q 324.38 251.99 320.68 250.31
  Q 319.07 249.58 317.68 250.67
  Q 313.24 254.15 311.40 259.22
  Q 309.97 263.16 309.69 269.37
  Q 309.17 280.80 315.76 289.54
  Q 319.56 294.59 326.68 300.02
  Z
  M 81.59 299.81
  Q 87.39 304.06 94.33 306.20
  Q 96.90 307.00 98.23 306.72
  Q 100.29 306.30 101.63 304.13
  A 2.02 2.02 -48.7 0 0 101.48 301.80
  Q 99.26 299.04 97.18 298.18
  Q 88.48 294.58 81.81 287.94
  Q 79.53 285.67 78.82 283.02
  Q 78.16 280.57 79.52 277.65
  Q 81.41 273.61 84.81 270.57
  Q 86.92 268.68 89.22 266.41
  A 1.41 1.39 -26.5 0 0 89.62 265.24
  Q 89.06 260.74 85.74 260.08
  A 1.66 1.33 -45.9 0 0 84.79 260.20
  Q 73.96 265.15 70.18 276.56
  Q 68.63 281.25 69.75 285.25
  Q 71.07 289.98 74.43 293.66
  Q 76.89 296.36 81.59 299.81
  Z
  M 126.94 294.81
  Q 127.79 295.51 128.56 295.92
  Q 129.57 296.47 130.14 296.98
  Q 133.71 300.15 138.81 300.94
  Q 143.32 301.64 143.44 297.31
  A 1.11 1.04 22.4 0 0 143.06 296.48
  Q 140.71 294.45 136.31 291.44
  Q 130.98 287.79 130.15 281.55
  Q 129.73 278.43 130.99 275.61
  Q 132.26 272.80 134.56 270.56
  Q 136.92 268.26 136.75 265.25
  Q 136.57 262.04 133.64 262.12
  Q 132.70 262.14 131.47 262.78
  Q 130.45 263.30 129.44 263.85
  Q 127.87 264.71 126.87 266.04
  Q 121.49 273.27 120.82 282.32
  Q 120.73 283.46 121.26 284.57
  Q 121.76 285.62 122.26 286.67
  Q 122.42 287.01 123.44 289.94
  Q 124.42 292.76 126.94 294.81
  Z
  M 392.69 299.81
  Q 402.12 307.10 414.53 310.11
  Q 419.30 311.27 424.08 312.35
  Q 428.17 313.27 430.94 312.19
  Q 436.79 309.90 432.78 305.43
  A 1.28 1.22 -17.7 0 0 431.94 305.02
  Q 428.74 304.74 425.53 304.70
  Q 423.65 304.67 421.72 304.03
  Q 419.85 303.42 417.94 302.98
  Q 414.18 302.13 412.37 301.29
  Q 408.79 299.61 402.56 296.19
  Q 390.17 289.37 393.06 276.27
  Q 393.07 276.20 394.35 272.46
  Q 395.92 267.90 393.21 264.22
  Q 391.83 262.36 389.91 263.66
  Q 387.03 265.61 386.18 268.23
  Q 384.06 274.82 384.14 281.64
  Q 384.20 287.39 386.15 291.61
  Q 388.40 296.50 392.69 299.81
  Z
  M 450.94 317.31
  Q 460.81 325.88 470.50 329.75
  Q 473.66 331.01 476.60 330.89
  Q 478.17 330.82 479.10 329.88
  Q 480.23 328.73 480.26 327.19
  Q 480.30 325.24 478.39 324.17
  Q 476.77 323.27 474.25 322.75
  Q 469.33 321.74 464.76 318.48
  Q 460.93 315.75 456.97 311.79
  Q 454.22 309.04 452.02 305.80
  Q 449.62 302.25 449.22 298.72
  Q 448.56 292.86 451.48 287.53
  Q 452.64 285.40 452.68 284.09
  Q 452.75 281.53 450.99 280.54
  Q 447.64 278.66 445.35 281.76
  Q 441.10 287.52 440.39 294.24
  Q 439.69 300.81 442.68 306.88
  Q 445.48 312.57 450.94 317.31
  Z
  M 580.64 361.86
  Q 581.88 362.99 585.00 364.75
  Q 587.33 366.07 589.31 365.39
  Q 591.17 364.75 592.37 363.21
  Q 593.48 361.78 592.54 360.02
  Q 592.04 359.08 590.51 357.90
  Q 588.84 356.59 587.13 355.32
  Q 585.20 353.87 584.09 352.42
  Q 580.91 348.26 580.50 344.50
  Q 579.28 333.35 583.98 320.42
  Q 583.99 320.39 584.96 317.98
  Q 587.59 311.42 587.50 302.25
  Q 587.41 292.52 580.72 287.54
  Q 578.91 286.20 577.09 286.28
  Q 574.18 286.42 573.79 289.23
  Q 573.56 290.89 574.99 293.31
  Q 577.06 296.83 577.75 299.75
  Q 580.24 310.35 574.98 320.77
  Q 572.31 326.07 571.66 331.81
  Q 571.00 337.60 571.38 343.18
  Q 572.12 354.07 580.64 361.86
  Z
  M 107.3015 311.9320
  A 5.34 4.70 125.6 0 0 114.2316 310.3260
  A 5.34 4.70 125.6 0 0 113.5185 303.2480
  A 5.34 4.70 125.6 0 0 106.5884 304.8540
  A 5.34 4.70 125.6 0 0 107.3015 311.9320
  Z
  M 256.94 454.57
  Q 278.82 457.24 286.00 457.25
  Q 295.27 457.26 304.52 457.70
  Q 315.71 458.24 323.01 458.35
  Q 335.13 458.53 347.25 459.01
  Q 368.15 459.85 389.01 458.36
  Q 404.95 457.22 420.57 453.87
  Q 443.06 449.04 464.96 442.00
  Q 473.52 439.24 478.69 435.94
  Q 483.46 432.89 481.18 427.54
  Q 480.28 425.43 477.99 425.23
  Q 474.71 424.94 471.67 426.66
  Q 461.10 432.67 449.56 436.56
  Q 438.40 440.33 416.00 445.00
  Q 405.47 447.19 384.14 449.07
  Q 375.59 449.83 367.84 449.96
  Q 359.67 450.09 351.50 449.94
  Q 346.74 449.85 341.99 450.13
  Q 336.18 450.47 332.49 450.37
  Q 314.88 449.89 297.27 449.41
  Q 291.79 449.26 285.27 448.54
  Q 279.27 447.87 273.26 447.38
  Q 262.89 446.54 255.32 445.33
  Q 245.03 443.68 234.75 442.00
  Q 228.55 440.99 213.49 436.49
  Q 204.61 433.83 194.68 429.78
  Q 181.69 424.48 168.69 419.19
  Q 159.38 415.40 154.10 412.79
  Q 146.95 409.24 140.08 405.16
  Q 134.60 401.91 130.94 398.56
  Q 127.95 395.83 126.36 392.04
  Q 124.75 388.22 124.36 384.49
  Q 123.84 379.68 126.08 375.07
  Q 129.08 368.92 131.81 365.31
  Q 138.16 356.92 148.06 346.56
  Q 152.76 341.66 153.58 336.00
  Q 153.99 333.21 153.85 329.99
  Q 153.72 326.75 152.44 324.06
  Q 150.56 320.11 147.12 316.32
  Q 145.15 314.14 143.56 313.67
  Q 141.13 312.95 138.82 314.82
  Q 135.88 317.20 138.40 320.08
  Q 139.73 321.61 140.97 323.20
  Q 142.38 325.01 143.05 326.64
  Q 145.49 332.51 143.23 337.91
  Q 142.06 340.70 136.64 346.19
  Q 130.74 352.16 125.32 358.57
  Q 120.54 364.21 117.42 370.79
  Q 113.98 378.05 114.15 384.68
  Q 114.34 391.95 117.88 398.42
  Q 119.79 401.91 123.22 405.13
  Q 126.65 408.36 130.06 410.44
  Q 143.05 418.36 158.30 424.91
  Q 164.89 427.75 176.77 432.56
  Q 201.39 442.54 227.19 449.03
  Q 241.89 452.73 256.94 454.57
  Z
  M 236.19 356.27
  Q 242.35 356.27 248.51 356.07
  Q 248.57 356.07 252.49 356.05
  Q 255.95 356.03 258.50 355.25
  Q 265.71 353.05 274.80 348.68
  Q 274.91 348.62 277.37 347.55
  Q 280.33 346.25 282.65 344.04
  Q 284.12 342.64 284.23 340.85
  Q 284.35 338.87 283.60 337.09
  Q 283.44 336.72 281.05 332.76
  Q 279.13 329.58 278.06 328.69
  Q 276.05 327.00 273.56 328.81
  Q 269.13 332.05 269.58 338.65
  Q 269.71 340.58 267.94 341.39
  Q 264.06 343.18 259.58 344.82
  Q 255.39 346.36 250.80 346.70
  Q 241.88 347.35 234.50 347.00
  Q 213.95 346.03 192.00 341.00
  Q 184.51 339.28 176.23 333.48
  A 1.61 1.55 8.2 0 1 175.64 332.72
  Q 173.23 326.13 174.67 318.30
  A 1.11 1.10 10.6 0 0 173.78 317.01
  Q 169.69 316.25 165.62 316.56
  A 1.27 1.25 5.2 0 0 164.50 317.48
  Q 162.69 324.24 163.42 331.23
  Q 164.08 337.50 168.69 340.56
  Q 182.07 349.47 199.50 351.75
  Q 200.22 351.84 202.90 352.97
  Q 204.56 353.67 206.37 353.80
  Q 209.82 354.05 213.24 354.56
  Q 224.65 356.25 236.19 356.27
  Z
  M 493.45 357.08
  Q 495.05 358.74 497.05 357.58
  Q 512.59 348.51 503.74 331.16
  Q 501.99 327.74 500.75 326.25
  Q 497.12 321.90 492.06 323.56
  Q 489.32 324.46 489.69 326.83
  Q 489.88 328.02 491.37 329.84
  Q 495.78 335.22 496.81 338.19
  Q 498.55 343.19 495.89 347.66
  Q 494.74 349.58 493.52 351.45
  Q 492.42 353.11 492.34 354.12
  Q 492.20 355.78 493.45 357.08
  Z
  M 455.86 363.27
  Q 456.67 365.08 458.94 365.81
  Q 474.20 370.73 486.77 372.88
  Q 491.84 373.75 492.00 368.73
  Q 492.11 365.41 488.91 364.50
  Q 476.53 360.98 463.47 357.68
  Q 461.09 357.08 459.99 357.30
  Q 458.12 357.67 456.93 359.45
  A 0.66 0.66 39.1 0 1 455.92 359.55
  Q 452.79 356.44 448.77 356.75
  Q 446.69 356.91 443.85 358.98
  Q 439.89 361.88 435.64 364.31
  Q 431.74 366.54 427.37 367.68
  Q 422.18 369.03 418.50 369.25
  Q 408.38 369.85 394.57 368.98
  Q 384.52 368.35 381.45 367.78
  Q 374.91 366.57 368.88 363.41
  Q 361.79 359.70 356.56 355.94
  Q 352.99 353.37 351.69 349.39
  Q 350.62 346.10 351.91 342.15
  Q 353.08 338.58 355.22 335.39
  A 1.53 1.52 -54.3 0 0 354.89 333.33
  Q 352.48 331.46 349.42 333.15
  Q 343.94 336.16 339.80 340.83
  Q 338.38 342.42 338.20 344.55
  Q 337.64 351.16 340.62 357.31
  Q 341.46 359.06 343.53 360.64
  Q 345.39 362.06 348.56 364.69
  Q 351.72 367.30 357.14 370.11
  Q 364.00 373.66 366.19 374.62
  Q 371.11 376.78 376.25 377.50
  Q 389.59 379.37 403.79 379.41
  Q 417.79 379.45 422.21 379.06
  Q 431.50 378.24 440.26 374.84
  Q 444.84 373.06 448.49 369.99
  Q 452.19 366.88 455.36 363.19
  A 0.30 0.30 53.9 0 1 455.86 363.27
  Z
  M 286.92 343.28
  Q 291.08 347.53 295.97 348.33
  Q 299.42 348.89 299.51 348.91
  Q 311.27 351.55 323.31 351.95
  Q 323.38 351.96 326.69 352.23
  Q 328.71 352.40 330.68 352.03
  Q 333.28 351.55 334.38 349.62
  Q 336.18 346.43 331.69 344.56
  Q 329.93 343.83 322.02 343.76
  Q 319.21 343.73 316.13 342.84
  Q 311.76 341.57 307.25 341.01
  Q 302.29 340.40 300.43 339.97
  Q 297.07 339.20 293.76 338.22
  Q 291.97 337.68 290.13 337.70
  Q 288.24 337.72 287.42 338.86
  Q 286.59 340.02 286.45 342.00
  A 1.70 1.67 25.3 0 0 286.92 343.28
  Z
  M 499.69 371.31
  Q 502.25 373.21 503.97 371.50
  Q 504.72 370.75 505.42 368.22
  Q 507.06 362.23 511.31 359.31
  Q 519.11 353.97 529.69 356.56
  Q 533.40 357.47 537.91 360.34
  Q 540.95 362.28 542.28 364.49
  Q 543.95 367.28 544.00 370.50
  Q 544.06 375.12 542.12 379.44
  Q 540.69 382.63 537.17 385.56
  Q 528.84 392.49 519.14 397.36
  Q 517.55 398.16 513.24 399.83
  Q 510.24 400.99 507.38 402.46
  Q 506.95 402.68 506.44 402.67
  Q 502.63 402.66 500.56 405.06
  Q 495.98 410.39 500.50 412.44
  Q 502.68 413.43 506.08 412.83
  Q 516.23 411.03 527.31 404.81
  Q 540.25 397.55 547.53 388.56
  Q 553.10 381.68 553.14 372.75
  Q 553.17 364.22 547.32 358.19
  Q 539.04 349.65 527.77 348.25
  Q 521.90 347.52 515.82 349.01
  Q 509.53 350.55 504.69 353.94
  Q 499.14 357.82 497.62 364.42
  Q 496.57 369.01 499.69 371.31
  Z
  M 269.35 388.04
  Q 272.97 390.06 277.31 388.31
  Q 279.97 387.25 283.40 387.03
  Q 284.71 386.95 289.59 386.93
  Q 294.52 386.91 299.41 387.51
  Q 306.39 388.36 309.13 388.60
  Q 323.05 389.83 334.69 393.56
  Q 337.89 394.59 339.77 398.06
  A 1.52 1.48 35.2 0 1 339.94 398.99
  Q 339.10 405.20 333.69 409.69
  Q 325.93 416.12 317.25 418.00
  Q 315.17 418.45 313.94 420.15
  Q 312.71 421.87 313.20 423.68
  Q 313.84 426.03 317.00 426.00
  Q 320.80 425.96 323.70 424.65
  Q 328.91 422.29 333.79 419.32
  Q 342.19 414.20 346.57 405.66
  Q 348.40 402.08 348.51 399.07
  Q 348.65 395.20 346.60 392.20
  Q 344.54 389.21 338.74 386.91
  Q 329.96 383.43 320.65 381.91
  Q 316.79 381.28 305.37 379.99
  Q 298.14 379.18 290.00 378.75
  Q 281.79 378.32 274.40 379.51
  Q 274.24 379.53 271.58 379.75
  Q 266.99 380.11 267.79 385.77
  A 3.09 3.07 10.7 0 0 269.35 388.04
  Z
  M 273.30 417.98
  Q 276.01 419.78 279.65 420.73
  A 2.42 2.42 20.5 0 0 281.86 420.22
  Q 284.79 417.70 283.58 415.42
  Q 283.14 414.57 280.40 412.63
  Q 275.95 409.48 272.84 404.97
  Q 271.72 403.36 272.55 401.58
  Q 273.64 399.26 272.66 397.61
  Q 271.78 396.12 269.65 396.23
  Q 265.00 396.47 263.57 401.92
  Q 263.05 403.95 263.56 405.98
  Q 264.64 410.19 268.09 413.60
  Q 270.89 416.37 273.30 417.98
  Z
  M 277.19 485.31
  Q 280.83 489.07 285.40 490.23
  Q 288.28 490.97 294.61 491.18
  Q 301.50 491.42 307.94 489.13
  Q 311.52 487.85 315.55 485.01
  Q 319.12 482.51 322.44 479.69
  Q 324.66 477.81 325.15 475.24
  Q 325.68 472.52 323.93 470.64
  Q 322.32 468.91 319.80 469.27
  Q 318.22 469.49 316.40 471.31
  Q 309.78 477.94 300.25 480.25
  Q 294.27 481.70 288.65 480.43
  Q 285.51 479.71 284.07 477.89
  Q 281.97 475.23 283.90 471.90
  Q 284.03 471.67 286.15 469.63
  Q 287.86 467.98 286.44 465.56
  Q 284.13 461.63 279.81 464.06
  Q 274.04 467.32 273.37 475.01
  Q 272.87 480.86 277.19 485.31
  Z
  M 358.88 474.88
  Q 380.04 485.47 394.61 503.67
  Q 399.93 510.32 406.35 519.86
  Q 421.46 542.31 427.83 568.98
  Q 430.53 580.32 430.50 590.50
  Q 430.49 593.27 432.18 594.86
  A 1.57 1.21 -15.6 0 0 433.07 595.22
  L 437.02 595.50
  Q 439.31 595.66 439.82 593.45
  Q 440.35 591.16 440.37 588.50
  Q 440.47 573.96 436.50 560.21
  Q 434.23 552.35 429.60 541.44
  Q 418.70 515.76 400.19 494.56
  Q 396.38 490.20 384.09 478.75
  Q 381.03 475.90 377.70 473.53
  Q 374.34 471.15 370.94 468.81
  Q 367.85 466.68 364.24 465.85
  Q 361.15 465.14 360.26 465.07
  Q 357.88 464.88 356.25 466.50
  Q 353.50 469.24 355.10 471.96
  Q 355.95 473.41 358.88 474.88
  Z
  M 265.50 467.52
  Q 262.81 465.23 260.00 466.00
  Q 252.22 468.14 245.36 473.04
  Q 240.94 476.20 233.26 483.62
  Q 220.39 496.07 210.86 511.19
  Q 204.40 521.44 200.76 528.43
  Q 196.11 537.39 193.36 547.21
  Q 190.55 557.22 188.79 567.46
  Q 187.91 572.55 192.47 573.84
  Q 196.28 574.92 198.00 572.00
  Q 198.85 570.56 199.09 568.90
  Q 200.85 556.39 204.60 545.26
  Q 207.54 536.52 212.74 527.04
  Q 224.00 506.50 240.46 489.78
  Q 246.01 484.15 251.33 480.62
  Q 257.28 476.68 263.86 473.79
  Q 266.08 472.81 266.72 471.63
  Q 267.85 469.52 265.50 467.52
  Z
  M 262.19 583.31
  Q 272.64 593.44 286.00 595.16
  Q 290.64 595.76 299.01 595.74
  Q 306.47 595.73 312.00 594.25
  Q 323.03 591.30 331.91 581.18
  Q 334.72 577.98 336.25 574.00
  Q 338.41 568.36 340.06 562.56
  Q 343.12 551.77 340.99 541.22
  Q 339.54 534.05 335.03 527.72
  Q 330.72 521.68 324.75 516.75
  Q 318.63 511.70 311.21 510.24
  Q 309.39 509.89 303.83 509.06
  Q 300.12 508.50 296.36 508.52
  Q 290.29 508.57 287.63 508.73
  Q 282.82 509.03 279.06 510.81
  Q 272.82 513.77 269.06 516.31
  Q 265.90 518.46 263.37 521.71
  Q 261.70 523.88 258.87 528.07
  Q 255.39 533.26 253.54 539.21
  Q 252.49 542.61 252.13 547.41
  Q 251.81 551.57 251.73 555.75
  Q 251.54 565.18 254.98 573.81
  Q 256.19 576.82 258.01 578.95
  Q 259.63 580.83 262.19 583.31
  Z"
/>
<path fill="#ddf1db" d="
  M 411.94 65.56
  Q 402.27 56.57 398.69 53.81
  Q 395.14 51.08 389.33 48.64
  Q 373.08 41.81 358.50 40.50
  Q 350.32 39.77 342.15 38.90
  Q 337.89 38.45 325.81 37.48
  Q 313.34 36.48 295.75 34.00
  Q 288.61 32.99 286.76 27.04
  Q 283.78 17.44 292.69 14.19
  Q 296.32 12.86 298.26 16.30
  A 1.46 0.98 44.9 0 1 298.45 17.26
  L 297.43 21.53
  A 1.22 0.74 -65.1 0 0 297.53 22.41
  Q 299.64 25.30 303.26 25.97
  Q 307.73 26.79 312.24 27.31
  Q 315.60 27.69 321.29 27.88
  Q 336.47 28.39 344.00 29.50
  Q 349.73 30.34 353.78 30.62
  Q 361.17 31.12 361.20 31.12
  Q 381.45 33.42 397.56 41.19
  Q 416.61 50.37 428.04 69.48
  Q 430.49 73.57 431.24 76.42
  Q 432.23 80.19 431.76 84.16
  Q 431.39 87.33 428.21 87.19
  Q 424.52 87.03 423.33 83.60
  Q 422.70 81.76 422.20 79.88
  Q 421.68 77.88 420.66 76.40
  Q 415.48 68.86 411.94 65.56
  Z"
/>
<path fill="#ddf1db" d="
  M 250.81 60.94
  Q 253.38 61.15 257.77 61.08
  Q 261.24 61.03 264.64 60.20
  Q 270.82 58.67 276.89 56.76
  Q 279.55 55.92 283.11 53.82
  Q 290.96 49.20 299.50 48.25
  Q 313.31 46.72 327.62 50.55
  Q 329.58 51.07 330.76 51.74
  Q 332.44 52.69 333.41 53.90
  Q 335.16 56.10 333.49 58.36
  Q 331.06 61.66 327.12 60.49
  Q 319.23 58.14 308.75 57.50
  Q 301.72 57.07 296.54 58.87
  Q 292.07 60.41 282.75 65.00
  Q 278.83 66.93 273.69 68.23
  Q 269.43 69.32 264.22 69.60
  Q 250.72 70.32 237.32 68.16
  Q 233.81 67.59 230.55 66.23
  Q 224.92 63.88 225.52 58.24
  Q 225.73 56.20 227.14 55.51
  Q 228.65 54.78 230.81 55.44
  Q 234.42 56.54 236.84 57.47
  Q 241.28 59.19 242.82 59.56
  Q 247.30 60.66 250.81 60.94
  Z"
/>
<path fill="#ddf1db" d="
  M 230.81 81.21
  Q 232.84 83.40 231.99 87.15
  A 2.16 2.15 86.1 0 1 230.67 88.67
  Q 227.46 89.93 224.34 90.88
  Q 221.26 91.82 218.05 91.45
  Q 206.26 90.13 195.36 85.33
  Q 193.99 84.72 189.94 82.06
  Q 188.78 81.31 187.66 81.96
  A 0.74 0.64 69.7 0 0 187.37 82.73
  Q 188.05 85.62 186.94 88.14
  Q 185.87 90.55 183.48 91.10
  Q 180.30 91.85 178.75 88.25
  Q 177.82 86.10 177.43 81.72
  Q 177.15 78.53 178.31 76.48
  Q 179.26 74.83 180.74 73.58
  Q 182.10 72.44 184.10 72.19
  Q 188.61 71.63 191.94 73.31
  Q 205.50 80.16 215.50 81.75
  Q 221.93 82.77 228.10 80.55
  A 2.53 2.51 -31.1 0 1 230.81 81.21
  Z"
/>
<path fill="#ddf1db" d="
  M 530.95 157.46
  Q 525.79 151.88 520.19 144.31
  Q 510.59 131.34 507.00 125.50
  Q 502.09 117.51 493.75 106.75
  Q 488.40 99.85 482.79 94.55
  Q 477.53 89.59 472.20 87.41
  Q 466.18 84.95 459.51 84.53
  Q 455.13 84.25 451.02 85.80
  Q 448.72 86.68 446.30 86.91
  Q 444.11 87.13 443.04 85.95
  Q 441.55 84.32 443.06 81.78
  Q 444.55 79.25 447.18 77.93
  Q 451.14 75.93 455.42 75.32
  Q 459.13 74.80 463.93 75.57
  Q 476.44 77.60 486.06 85.44
  Q 501.34 97.89 512.26 114.31
  Q 518.69 123.98 525.04 133.70
  Q 533.16 146.14 544.50 155.75
  Q 546.32 157.29 554.25 161.77
  Q 555.64 162.55 558.00 162.88
  Q 561.13 163.32 563.79 165.19
  Q 566.31 166.96 566.10 169.78
  Q 565.97 171.56 564.57 172.80
  Q 563.06 174.15 561.25 174.25
  Q 551.83 174.76 543.69 169.06
  Q 539.85 166.38 536.94 163.66
  Q 535.02 161.87 530.95 157.46
  Z"
/>
<path fill="#ddf1db" d="
  M 138.56 135.70
  Q 135.31 139.46 131.99 142.46
  Q 130.26 144.02 127.96 143.68
  Q 123.23 142.98 123.25 139.50
  Q 123.26 137.66 125.29 135.05
  Q 127.36 132.38 127.47 132.23
  Q 131.91 126.18 137.44 121.94
  Q 149.80 112.44 165.31 109.29
  Q 169.86 108.36 171.21 108.43
  Q 174.60 108.60 176.76 111.56
  Q 177.85 113.07 176.73 114.55
  Q 174.59 117.38 171.69 118.44
  Q 169.71 119.16 163.25 120.59
  Q 157.74 121.80 154.92 123.01
  Q 149.59 125.30 145.07 128.93
  Q 142.99 130.60 138.56 135.70
  Z"
/>
<path fill="#ddf1db" d="
  M 118.81 171.94
  Q 121.58 173.42 120.96 176.21
  Q 120.53 178.14 118.69 179.71
  Q 116.86 181.27 114.52 181.91
  Q 110.27 183.09 110.22 183.11
  Q 87.05 192.45 82.57 217.05
  Q 81.97 220.34 82.52 223.59
  Q 83.07 226.83 84.00 230.01
  A 2.20 2.20 58.9 0 1 83.47 232.16
  Q 79.91 235.82 75.19 233.06
  Q 72.90 231.72 72.19 227.96
  Q 70.82 220.73 72.41 213.54
  Q 77.77 189.30 98.86 176.31
  Q 102.71 173.94 109.69 171.69
  Q 115.10 169.94 118.81 171.94
  Z"
/>
<path fill="#ddf1db" d="
  M 573.94 271.56
  Q 570.48 268.48 568.69 265.31
  Q 563.97 256.93 562.08 247.48
  Q 558.49 229.57 554.43 211.77
  Q 552.82 204.73 546.50 203.25
  Q 544.03 202.67 542.37 201.85
  Q 540.20 200.78 539.80 198.69
  Q 539.27 196.00 542.06 194.31
  Q 544.07 193.10 546.53 193.19
  Q 547.58 193.22 550.99 193.71
  Q 559.85 194.97 563.19 203.06
  Q 566.61 211.36 567.50 223.00
  Q 567.86 227.74 571.06 240.94
  Q 573.48 250.91 577.07 258.02
  Q 578.63 261.11 581.50 263.61
  Q 585.15 266.81 589.08 269.66
  Q 592.22 271.95 593.43 276.08
  A 1.19 1.17 -32.0 0 1 593.16 277.20
  Q 588.45 282.25 582.72 278.51
  Q 579.02 276.10 573.94 271.56
  Z"
/>
<path fill="#ddf1db" d="
  M 256.65 289.86
  Q 248.85 285.08 242.80 278.21
  Q 235.02 269.37 234.33 257.50
  Q 233.55 243.92 239.03 231.55
  Q 245.64 216.64 257.20 205.17
  A 1.70 1.65 -72.5 0 1 258.05 204.71
  Q 262.76 203.78 264.00 204.25
  Q 266.91 205.34 266.86 207.76
  Q 266.83 209.26 265.12 211.17
  Q 263.06 213.46 260.95 215.70
  Q 247.37 230.09 244.25 251.00
  Q 243.40 256.72 244.54 261.57
  Q 245.55 265.80 249.11 270.81
  Q 262.76 289.99 287.94 287.37
  A 1.48 1.28 -28.6 0 1 288.86 287.57
  Q 291.04 288.94 291.50 290.75
  Q 292.12 293.21 290.54 294.73
  Q 289.47 295.75 287.14 295.81
  Q 279.30 296.04 273.25 295.50
  Q 264.57 294.72 256.65 289.86
  Z"
/>
<path fill="#ddf1db" d="
  M 178.88 223.33
  Q 181.18 225.87 178.95 229.14
  Q 178.12 230.36 178.10 230.39
  Q 170.58 242.67 174.19 257.31
  Q 175.94 264.43 180.50 269.34
  Q 184.77 273.92 190.16 276.91
  Q 196.20 280.26 203.50 279.75
  Q 207.78 279.45 210.25 282.07
  Q 212.30 284.25 211.59 286.89
  Q 210.94 289.27 208.29 289.83
  Q 207.47 290.00 204.20 290.12
  Q 191.98 290.55 181.38 284.41
  Q 169.67 277.62 165.31 265.44
  Q 162.12 256.51 162.53 246.61
  Q 162.79 240.10 163.78 235.91
  Q 165.03 230.60 168.14 225.91
  Q 169.63 223.66 172.31 221.81
  Q 174.35 220.41 176.14 221.19
  Q 177.46 221.77 178.88 223.33
  Z"
/>
<path fill="#ddf1db" d="
  M 315.76 289.54
  Q 309.17 280.80 309.69 269.37
  Q 309.97 263.16 311.40 259.22
  Q 313.24 254.15 317.68 250.67
  Q 319.07 249.58 320.68 250.31
  Q 324.38 251.99 323.98 255.22
  Q 323.84 256.34 321.76 259.85
  Q 317.26 267.47 319.44 275.81
  Q 321.51 283.75 328.99 290.00
  Q 337.63 297.21 348.47 300.36
  Q 351.48 301.23 353.71 302.53
  Q 355.49 303.57 354.83 305.52
  Q 353.71 308.84 350.44 309.44
  Q 345.78 310.29 339.86 307.73
  Q 332.75 304.65 326.68 300.02
  Q 319.56 294.59 315.76 289.54
  Z"
/>
<path fill="#ddf1db" d="
  M 74.43 293.66
  Q 71.07 289.98 69.75 285.25
  Q 68.63 281.25 70.18 276.56
  Q 73.96 265.15 84.79 260.20
  A 1.66 1.33 -45.9 0 1 85.74 260.08
  Q 89.06 260.74 89.62 265.24
  A 1.41 1.39 -26.5 0 1 89.22 266.41
  Q 86.92 268.68 84.81 270.57
  Q 81.41 273.61 79.52 277.65
  Q 78.16 280.57 78.82 283.02
  Q 79.53 285.67 81.81 287.94
  Q 88.48 294.58 97.18 298.18
  Q 99.26 299.04 101.48 301.80
  A 2.02 2.02 -48.7 0 1 101.63 304.13
  Q 100.29 306.30 98.23 306.72
  Q 96.90 307.00 94.33 306.20
  Q 87.39 304.06 81.59 299.81
  Q 76.89 296.36 74.43 293.66
  Z"
/>
<path fill="#ddf1db" d="
  M 126.94 294.81
  Q 124.42 292.76 123.44 289.94
  Q 122.42 287.01 122.26 286.67
  Q 121.76 285.62 121.26 284.57
  Q 120.73 283.46 120.82 282.32
  Q 121.49 273.27 126.87 266.04
  Q 127.87 264.71 129.44 263.85
  Q 130.45 263.30 131.47 262.78
  Q 132.70 262.14 133.64 262.12
  Q 136.57 262.04 136.75 265.25
  Q 136.92 268.26 134.56 270.56
  Q 132.26 272.80 130.99 275.61
  Q 129.73 278.43 130.15 281.55
  Q 130.98 287.79 136.31 291.44
  Q 140.71 294.45 143.06 296.48
  A 1.11 1.04 22.4 0 1 143.44 297.31
  Q 143.32 301.64 138.81 300.94
  Q 133.71 300.15 130.14 296.98
  Q 129.57 296.47 128.56 295.92
  Q 127.79 295.51 126.94 294.81
  Z"
/>
<path fill="#ddf1db" d="
  M 392.69 299.81
  Q 388.40 296.50 386.15 291.61
  Q 384.20 287.39 384.14 281.64
  Q 384.06 274.82 386.18 268.23
  Q 387.03 265.61 389.91 263.66
  Q 391.83 262.36 393.21 264.22
  Q 395.92 267.90 394.35 272.46
  Q 393.07 276.20 393.06 276.27
  Q 390.17 289.37 402.56 296.19
  Q 408.79 299.61 412.37 301.29
  Q 414.18 302.13 417.94 302.98
  Q 419.85 303.42 421.72 304.03
  Q 423.65 304.67 425.53 304.70
  Q 428.74 304.74 431.94 305.02
  A 1.28 1.22 -17.7 0 1 432.78 305.43
  Q 436.79 309.90 430.94 312.19
  Q 428.17 313.27 424.08 312.35
  Q 419.30 311.27 414.53 310.11
  Q 402.12 307.10 392.69 299.81
  Z"
/>
<path fill="#ddf1db" d="
  M 450.94 317.31
  Q 445.48 312.57 442.68 306.88
  Q 439.69 300.81 440.39 294.24
  Q 441.10 287.52 445.35 281.76
  Q 447.64 278.66 450.99 280.54
  Q 452.75 281.53 452.68 284.09
  Q 452.64 285.40 451.48 287.53
  Q 448.56 292.86 449.22 298.72
  Q 449.62 302.25 452.02 305.80
  Q 454.22 309.04 456.97 311.79
  Q 460.93 315.75 464.76 318.48
  Q 469.33 321.74 474.25 322.75
  Q 476.77 323.27 478.39 324.17
  Q 480.30 325.24 480.26 327.19
  Q 480.23 328.73 479.10 329.88
  Q 478.17 330.82 476.60 330.89
  Q 473.66 331.01 470.50 329.75
  Q 460.81 325.88 450.94 317.31
  Z"
/>
<path fill="#ddf1db" d="
  M 580.64 361.86
  Q 572.12 354.07 571.38 343.18
  Q 571.00 337.60 571.66 331.81
  Q 572.31 326.07 574.98 320.77
  Q 580.24 310.35 577.75 299.75
  Q 577.06 296.83 574.99 293.31
  Q 573.56 290.89 573.79 289.23
  Q 574.18 286.42 577.09 286.28
  Q 578.91 286.20 580.72 287.54
  Q 587.41 292.52 587.50 302.25
  Q 587.59 311.42 584.96 317.98
  Q 583.99 320.39 583.98 320.42
  Q 579.28 333.35 580.50 344.50
  Q 580.91 348.26 584.09 352.42
  Q 585.20 353.87 587.13 355.32
  Q 588.84 356.59 590.51 357.90
  Q 592.04 359.08 592.54 360.02
  Q 593.48 361.78 592.37 363.21
  Q 591.17 364.75 589.31 365.39
  Q 587.33 366.07 585.00 364.75
  Q 581.88 362.99 580.64 361.86
  Z"
/>
<ellipse fill="#ddf1db" cx="0.00" cy="0.00" transform="translate(110.41,307.59) rotate(125.6)" rx="5.34" ry="4.70"/>
<path fill="#ddf1db" d="
  M 256.94 454.57
  Q 241.89 452.73 227.19 449.03
  Q 201.39 442.54 176.77 432.56
  Q 164.89 427.75 158.30 424.91
  Q 143.05 418.36 130.06 410.44
  Q 126.65 408.36 123.22 405.13
  Q 119.79 401.91 117.88 398.42
  Q 114.34 391.95 114.15 384.68
  Q 113.98 378.05 117.42 370.79
  Q 120.54 364.21 125.32 358.57
  Q 130.74 352.16 136.64 346.19
  Q 142.06 340.70 143.23 337.91
  Q 145.49 332.51 143.05 326.64
  Q 142.38 325.01 140.97 323.20
  Q 139.73 321.61 138.40 320.08
  Q 135.88 317.20 138.82 314.82
  Q 141.13 312.95 143.56 313.67
  Q 145.15 314.14 147.12 316.32
  Q 150.56 320.11 152.44 324.06
  Q 153.72 326.75 153.85 329.99
  Q 153.99 333.21 153.58 336.00
  Q 152.76 341.66 148.06 346.56
  Q 138.16 356.92 131.81 365.31
  Q 129.08 368.92 126.08 375.07
  Q 123.84 379.68 124.36 384.49
  Q 124.75 388.22 126.36 392.04
  Q 127.95 395.83 130.94 398.56
  Q 134.60 401.91 140.08 405.16
  Q 146.95 409.24 154.10 412.79
  Q 159.38 415.40 168.69 419.19
  Q 181.69 424.48 194.68 429.78
  Q 204.61 433.83 213.49 436.49
  Q 228.55 440.99 234.75 442.00
  Q 245.03 443.68 255.32 445.33
  Q 262.89 446.54 273.26 447.38
  Q 279.27 447.87 285.27 448.54
  Q 291.79 449.26 297.27 449.41
  Q 314.88 449.89 332.49 450.37
  Q 336.18 450.47 341.99 450.13
  Q 346.74 449.85 351.50 449.94
  Q 359.67 450.09 367.84 449.96
  Q 375.59 449.83 384.14 449.07
  Q 405.47 447.19 416.00 445.00
  Q 438.40 440.33 449.56 436.56
  Q 461.10 432.67 471.67 426.66
  Q 474.71 424.94 477.99 425.23
  Q 480.28 425.43 481.18 427.54
  Q 483.46 432.89 478.69 435.94
  Q 473.52 439.24 464.96 442.00
  Q 443.06 449.04 420.57 453.87
  Q 404.95 457.22 389.01 458.36
  Q 368.15 459.85 347.25 459.01
  Q 335.13 458.53 323.01 458.35
  Q 315.71 458.24 304.52 457.70
  Q 295.27 457.26 286.00 457.25
  Q 278.82 457.24 256.94 454.57
  Z"
/>
<path fill="#ddf1db" d="
  M 236.19 356.27
  Q 224.65 356.25 213.24 354.56
  Q 209.82 354.05 206.37 353.80
  Q 204.56 353.67 202.90 352.97
  Q 200.22 351.84 199.50 351.75
  Q 182.07 349.47 168.69 340.56
  Q 164.08 337.50 163.42 331.23
  Q 162.69 324.24 164.50 317.48
  A 1.27 1.25 5.2 0 1 165.62 316.56
  Q 169.69 316.25 173.78 317.01
  A 1.11 1.10 10.6 0 1 174.67 318.30
  Q 173.23 326.13 175.64 332.72
  A 1.61 1.55 8.2 0 0 176.23 333.48
  Q 184.51 339.28 192.00 341.00
  Q 213.95 346.03 234.50 347.00
  Q 241.88 347.35 250.80 346.70
  Q 255.39 346.36 259.58 344.82
  Q 264.06 343.18 267.94 341.39
  Q 269.71 340.58 269.58 338.65
  Q 269.13 332.05 273.56 328.81
  Q 276.05 327.00 278.06 328.69
  Q 279.13 329.58 281.05 332.76
  Q 283.44 336.72 283.60 337.09
  Q 284.35 338.87 284.23 340.85
  Q 284.12 342.64 282.65 344.04
  Q 280.33 346.25 277.37 347.55
  Q 274.91 348.62 274.80 348.68
  Q 265.71 353.05 258.50 355.25
  Q 255.95 356.03 252.49 356.05
  Q 248.57 356.07 248.51 356.07
  Q 242.35 356.27 236.19 356.27
  Z"
/>
<path fill="#ddf1db" d="
  M 493.45 357.08
  Q 492.20 355.78 492.34 354.12
  Q 492.42 353.11 493.52 351.45
  Q 494.74 349.58 495.89 347.66
  Q 498.55 343.19 496.81 338.19
  Q 495.78 335.22 491.37 329.84
  Q 489.88 328.02 489.69 326.83
  Q 489.32 324.46 492.06 323.56
  Q 497.12 321.90 500.75 326.25
  Q 501.99 327.74 503.74 331.16
  Q 512.59 348.51 497.05 357.58
  Q 495.05 358.74 493.45 357.08
  Z"
/>
<path fill="#ddf1db" d="
  M 455.36 363.19
  Q 452.19 366.88 448.49 369.99
  Q 444.84 373.06 440.26 374.84
  Q 431.50 378.24 422.21 379.06
  Q 417.79 379.45 403.79 379.41
  Q 389.59 379.37 376.25 377.50
  Q 371.11 376.78 366.19 374.62
  Q 364.00 373.66 357.14 370.11
  Q 351.72 367.30 348.56 364.69
  Q 345.39 362.06 343.53 360.64
  Q 341.46 359.06 340.62 357.31
  Q 337.64 351.16 338.20 344.55
  Q 338.38 342.42 339.80 340.83
  Q 343.94 336.16 349.42 333.15
  Q 352.48 331.46 354.89 333.33
  A 1.53 1.52 -54.3 0 1 355.22 335.39
  Q 353.08 338.58 351.91 342.15
  Q 350.62 346.10 351.69 349.39
  Q 352.99 353.37 356.56 355.94
  Q 361.79 359.70 368.88 363.41
  Q 374.91 366.57 381.45 367.78
  Q 384.52 368.35 394.57 368.98
  Q 408.38 369.85 418.50 369.25
  Q 422.18 369.03 427.37 367.68
  Q 431.74 366.54 435.64 364.31
  Q 439.89 361.88 443.85 358.98
  Q 446.69 356.91 448.77 356.75
  Q 452.79 356.44 455.92 359.55
  A 0.66 0.66 39.1 0 0 456.93 359.45
  Q 458.12 357.67 459.99 357.30
  Q 461.09 357.08 463.47 357.68
  Q 476.53 360.98 488.91 364.50
  Q 492.11 365.41 492.00 368.73
  Q 491.84 373.75 486.77 372.88
  Q 474.20 370.73 458.94 365.81
  Q 456.67 365.08 455.86 363.27
  A 0.30 0.30 53.9 0 0 455.36 363.19
  Z"
/>
<path fill="#ddf1db" d="
  M 286.92 343.28
  A 1.70 1.67 25.3 0 1 286.45 342.00
  Q 286.59 340.02 287.42 338.86
  Q 288.24 337.72 290.13 337.70
  Q 291.97 337.68 293.76 338.22
  Q 297.07 339.20 300.43 339.97
  Q 302.29 340.40 307.25 341.01
  Q 311.76 341.57 316.13 342.84
  Q 319.21 343.73 322.02 343.76
  Q 329.93 343.83 331.69 344.56
  Q 336.18 346.43 334.38 349.62
  Q 333.28 351.55 330.68 352.03
  Q 328.71 352.40 326.69 352.23
  Q 323.38 351.96 323.31 351.95
  Q 311.27 351.55 299.51 348.91
  Q 299.42 348.89 295.97 348.33
  Q 291.08 347.53 286.92 343.28
  Z"
/>
<path fill="#ddf1db" d="
  M 499.69 371.31
  Q 496.57 369.01 497.62 364.42
  Q 499.14 357.82 504.69 353.94
  Q 509.53 350.55 515.82 349.01
  Q 521.90 347.52 527.77 348.25
  Q 539.04 349.65 547.32 358.19
  Q 553.17 364.22 553.14 372.75
  Q 553.10 381.68 547.53 388.56
  Q 540.25 397.55 527.31 404.81
  Q 516.23 411.03 506.08 412.83
  Q 502.68 413.43 500.50 412.44
  Q 495.98 410.39 500.56 405.06
  Q 502.63 402.66 506.44 402.67
  Q 506.95 402.68 507.38 402.46
  Q 510.24 400.99 513.24 399.83
  Q 517.55 398.16 519.14 397.36
  Q 528.84 392.49 537.17 385.56
  Q 540.69 382.63 542.12 379.44
  Q 544.06 375.12 544.00 370.50
  Q 543.95 367.28 542.28 364.49
  Q 540.95 362.28 537.91 360.34
  Q 533.40 357.47 529.69 356.56
  Q 519.11 353.97 511.31 359.31
  Q 507.06 362.23 505.42 368.22
  Q 504.72 370.75 503.97 371.50
  Q 502.25 373.21 499.69 371.31
  Z"
/>
<path fill="#ddf1db" d="
  M 269.35 388.04
  A 3.09 3.07 10.7 0 1 267.79 385.77
  Q 266.99 380.11 271.58 379.75
  Q 274.24 379.53 274.40 379.51
  Q 281.79 378.32 290.00 378.75
  Q 298.14 379.18 305.37 379.99
  Q 316.79 381.28 320.65 381.91
  Q 329.96 383.43 338.74 386.91
  Q 344.54 389.21 346.60 392.20
  Q 348.65 395.20 348.51 399.07
  Q 348.40 402.08 346.57 405.66
  Q 342.19 414.20 333.79 419.32
  Q 328.91 422.29 323.70 424.65
  Q 320.80 425.96 317.00 426.00
  Q 313.84 426.03 313.20 423.68
  Q 312.71 421.87 313.94 420.15
  Q 315.17 418.45 317.25 418.00
  Q 325.93 416.12 333.69 409.69
  Q 339.10 405.20 339.94 398.99
  A 1.52 1.48 35.2 0 0 339.77 398.06
  Q 337.89 394.59 334.69 393.56
  Q 323.05 389.83 309.13 388.60
  Q 306.39 388.36 299.41 387.51
  Q 294.52 386.91 289.59 386.93
  Q 284.71 386.95 283.40 387.03
  Q 279.97 387.25 277.31 388.31
  Q 272.97 390.06 269.35 388.04
  Z"
/>
<path fill="#ddf1db" d="
  M 268.09 413.60
  Q 264.64 410.19 263.56 405.98
  Q 263.05 403.95 263.57 401.92
  Q 265.00 396.47 269.65 396.23
  Q 271.78 396.12 272.66 397.61
  Q 273.64 399.26 272.55 401.58
  Q 271.72 403.36 272.84 404.97
  Q 275.95 409.48 280.40 412.63
  Q 283.14 414.57 283.58 415.42
  Q 284.79 417.70 281.86 420.22
  A 2.42 2.42 28.4 0 1 279.65 420.73
  Q 276.01 419.78 273.30 417.98
  Q 270.89 416.37 268.09 413.60
  Z"
/>
<path fill="#ddf1db" d="
  M 277.19 485.31
  Q 272.87 480.86 273.37 475.01
  Q 274.04 467.32 279.81 464.06
  Q 284.13 461.63 286.44 465.56
  Q 287.86 467.98 286.15 469.63
  Q 284.03 471.67 283.90 471.90
  Q 281.97 475.23 284.07 477.89
  Q 285.51 479.71 288.65 480.43
  Q 294.27 481.70 300.25 480.25
  Q 309.78 477.94 316.40 471.31
  Q 318.22 469.49 319.80 469.27
  Q 322.32 468.91 323.93 470.64
  Q 325.68 472.52 325.15 475.24
  Q 324.66 477.81 322.44 479.69
  Q 319.12 482.51 315.55 485.01
  Q 311.52 487.85 307.94 489.13
  Q 301.50 491.42 294.61 491.18
  Q 288.28 490.97 285.40 490.23
  Q 280.83 489.07 277.19 485.31
  Z"
/>
<path fill="#ddf1db" d="
  M 355.10 471.96
  Q 353.50 469.24 356.25 466.50
  Q 357.88 464.88 360.26 465.07
  Q 361.15 465.14 364.24 465.85
  Q 367.85 466.68 370.94 468.81
  Q 374.34 471.15 377.70 473.53
  Q 381.03 475.90 384.09 478.75
  Q 396.38 490.20 400.19 494.56
  Q 418.70 515.76 429.60 541.44
  Q 434.23 552.35 436.50 560.21
  Q 440.47 573.96 440.37 588.50
  Q 440.35 591.16 439.82 593.45
  Q 439.31 595.66 437.02 595.50
  L 433.07 595.22
  A 1.57 1.21 -15.6 0 1 432.18 594.86
  Q 430.49 593.27 430.50 590.50
  Q 430.53 580.32 427.83 568.98
  Q 421.46 542.31 406.35 519.86
  Q 399.93 510.32 394.61 503.67
  Q 380.04 485.47 358.88 474.88
  Q 355.95 473.41 355.10 471.96
  Z"
/>
<path fill="#ddf1db" d="
  M 265.50 467.52
  Q 267.85 469.52 266.72 471.63
  Q 266.08 472.81 263.86 473.79
  Q 257.28 476.68 251.33 480.62
  Q 246.01 484.15 240.46 489.78
  Q 224.00 506.50 212.74 527.04
  Q 207.54 536.52 204.60 545.26
  Q 200.85 556.39 199.09 568.90
  Q 198.85 570.56 198.00 572.00
  Q 196.28 574.92 192.47 573.84
  Q 187.91 572.55 188.79 567.46
  Q 190.55 557.22 193.36 547.21
  Q 196.11 537.39 200.76 528.43
  Q 204.40 521.44 210.86 511.19
  Q 220.39 496.07 233.26 483.62
  Q 240.94 476.20 245.36 473.04
  Q 252.22 468.14 260.00 466.00
  Q 262.81 465.23 265.50 467.52
  Z"
/>
<path fill="#ddf1db" d="
  M 262.19 583.31
  Q 259.63 580.83 258.01 578.95
  Q 256.19 576.82 254.98 573.81
  Q 251.54 565.18 251.73 555.75
  Q 251.81 551.57 252.13 547.41
  Q 252.49 542.61 253.54 539.21
  Q 255.39 533.26 258.87 528.07
  Q 261.70 523.88 263.37 521.71
  Q 265.90 518.46 269.06 516.31
  Q 272.82 513.77 279.06 510.81
  Q 282.82 509.03 287.63 508.73
  Q 290.29 508.57 296.36 508.52
  Q 300.12 508.50 303.83 509.06
  Q 309.39 509.89 311.21 510.24
  Q 318.63 511.70 324.75 516.75
  Q 330.72 521.68 335.03 527.72
  Q 339.54 534.05 340.99 541.22
  Q 343.12 551.77 340.06 562.56
  Q 338.41 568.36 336.25 574.00
  Q 334.72 577.98 331.91 581.18
  Q 323.03 591.30 312.00 594.25
  Q 306.47 595.73 299.01 595.74
  Q 290.64 595.76 286.00 595.16
  Q 272.64 593.44 262.19 583.31
  Z
  M 271.44 579.31
  Q 277.98 585.01 285.73 586.21
  Q 291.49 587.10 291.73 587.14
  Q 313.75 591.17 325.94 572.44
  Q 332.11 562.95 332.89 551.43
  Q 333.17 547.33 333.08 545.07
  Q 332.94 541.47 331.69 538.81
  Q 331.05 537.45 327.74 532.11
  Q 325.05 527.75 323.22 525.81
  Q 317.39 519.63 308.81 518.19
  Q 302.81 517.18 295.46 517.03
  Q 290.45 516.92 289.55 517.01
  Q 286.75 517.28 283.75 518.50
  Q 268.16 524.87 263.60 539.71
  Q 261.68 545.94 261.21 551.83
  Q 260.74 557.76 262.19 564.31
  Q 264.09 572.91 271.44 579.31
  Z"
/>
<path fill="#84cd7d" d="
  M 271.44 579.31
  Q 264.09 572.91 262.19 564.31
  Q 260.74 557.76 261.21 551.83
  Q 261.68 545.94 263.60 539.71
  Q 268.16 524.87 283.75 518.50
  Q 286.75 517.28 289.55 517.01
  Q 290.45 516.92 295.46 517.03
  Q 302.81 517.18 308.81 518.19
  Q 317.39 519.63 323.22 525.81
  Q 325.05 527.75 327.74 532.11
  Q 331.05 537.45 331.69 538.81
  Q 332.94 541.47 333.08 545.07
  Q 333.17 547.33 332.89 551.43
  Q 332.11 562.95 325.94 572.44
  Q 313.75 591.17 291.73 587.14
  Q 291.49 587.10 285.73 586.21
  Q 277.98 585.01 271.44 579.31
  Z
  M 280.44 574.56
  Q 284.65 576.99 289.48 576.79
  Q 292.49 576.68 296.21 574.56
  Q 310.14 566.68 319.81 558.31
  Q 323.04 555.52 323.38 551.21
  Q 323.70 547.00 321.39 544.40
  Q 319.13 541.87 315.43 542.95
  Q 313.61 543.48 310.52 545.77
  Q 302.04 552.06 293.45 558.20
  Q 291.74 559.43 289.88 560.37
  Q 287.77 561.45 285.92 561.14
  Q 281.37 560.36 282.00 554.73
  Q 282.16 553.32 281.99 551.90
  Q 281.49 547.85 284.69 545.41
  Q 286.57 543.98 288.62 542.80
  Q 291.40 541.19 292.33 540.00
  Q 294.92 536.70 292.20 533.72
  Q 290.40 531.74 287.48 530.92
  Q 282.81 529.60 279.88 532.94
  Q 277.97 535.12 277.54 539.17
  Q 277.23 542.15 277.25 546.00
  Q 277.36 565.53 277.55 569.50
  Q 277.72 573.00 280.44 574.56
  Z"
/>
<path fill="#ddf1db" d="
  M 280.44 574.56
  Q 277.72 573.00 277.55 569.50
  Q 277.36 565.53 277.25 546.00
  Q 277.23 542.15 277.54 539.17
  Q 277.97 535.12 279.88 532.94
  Q 282.81 529.60 287.48 530.92
  Q 290.40 531.74 292.20 533.72
  Q 294.92 536.70 292.33 540.00
  Q 291.40 541.19 288.62 542.80
  Q 286.57 543.98 284.69 545.41
  Q 281.49 547.85 281.99 551.90
  Q 282.16 553.32 282.00 554.73
  Q 281.37 560.36 285.92 561.14
  Q 287.77 561.45 289.88 560.37
  Q 291.74 559.43 293.45 558.20
  Q 302.04 552.06 310.52 545.77
  Q 313.61 543.48 315.43 542.95
  Q 319.13 541.87 321.39 544.40
  Q 323.70 547.00 323.38 551.21
  Q 323.04 555.52 319.81 558.31
  Q 310.14 566.68 296.21 574.56
  Q 292.49 576.68 289.48 576.79
  Q 284.65 576.99 280.44 574.56
  Z"
/>
</svg>
